<svg width="253" height="34" viewBox="0 0 253 34" fill="none" xmlns="http://www.w3.org/2000/svg">
<g clip-path="url(#clip0_1_572)">
<path d="M24.3459 0.00219727H9.65005V9.68379H0V24.3166H9.65005V33.9977H24.3459V24.3166H33.9959V9.68379H24.3459V0.00219727ZM104.385 11.2606C103.912 10.9137 103.249 10.6299 102.429 10.4722C101.609 10.3145 100.348 10.2514 98.7081 10.2514H93.4415C91.7701 10.2514 90.5402 10.3145 89.7203 10.4722C88.9003 10.6299 88.2696 10.9137 87.765 11.2606C87.1974 11.7021 86.7874 12.2378 86.5351 12.9635C86.2828 13.6889 86.1567 14.6665 86.1567 15.8653V19.8389C86.1567 20.9426 86.2828 21.8567 86.5351 22.5505C86.7874 23.2128 87.1974 23.7489 87.765 24.1904C88.2696 24.5688 88.9003 24.8211 89.6887 24.9788C90.4771 25.1365 91.7386 25.1996 93.4415 25.1996H98.7081C100.379 25.1996 101.641 25.1365 102.429 24.9788C103.249 24.8216 103.88 24.5688 104.385 24.1904C104.921 23.7489 105.331 23.2128 105.583 22.4875C105.836 21.7937 105.961 20.8791 105.961 19.7434V15.7072C105.961 14.5719 105.835 13.6573 105.583 12.9635C105.331 12.2382 104.921 11.6706 104.385 11.2606ZM101.421 18.7347C101.421 19.8069 101.168 20.5638 100.663 20.9422C100.127 21.3522 99.0865 21.5414 97.5097 21.5414H94.6714C93.0946 21.5414 92.0539 21.3517 91.5178 20.9422C90.9817 20.5638 90.7294 19.8384 90.7294 18.7977V16.7799C90.7294 15.6446 90.9822 14.8877 91.4863 14.5093C91.9593 14.0988 93.0316 13.9101 94.6399 13.9101H97.5097C99.0865 13.9101 100.127 14.0993 100.663 14.5093C101.168 14.8877 101.421 15.6446 101.421 16.7168V18.7347ZM108.831 25.0419H113.278V10.4091H108.831V25.0419ZM135.668 10.4091H130.276L125.703 15.5495L121.162 10.4091H115.58L122.234 17.5994L115.044 25.0419H120.846L125.703 19.9015L130.465 25.0419H136.236L129.203 17.5994L135.668 10.4091ZM63.3245 19.3654H58.7833V19.5226C58.7833 20.311 58.5626 20.8471 58.1211 21.131C57.6796 21.4148 56.7335 21.5414 55.3144 21.5414H52.7288C51.2782 21.5414 50.3317 21.3517 49.8586 20.9422C49.3545 20.5638 49.1333 19.8384 49.1333 18.7977V16.7799C49.1333 15.6126 49.354 14.8246 49.764 14.4457C50.2055 14.0988 51.1831 13.9096 52.7288 13.9096H56.324C57.1119 13.9096 57.7111 14.0358 58.0895 14.2881C58.468 14.5719 58.6572 14.9819 58.6572 15.5495V15.7072H63.1353C63.1673 15.581 63.1673 15.4864 63.1673 15.3603V14.8872C63.1673 13.9727 63.0723 13.2158 62.8515 12.6166C62.6307 12.017 62.2838 11.544 61.8108 11.1971C61.3693 10.8502 60.7701 10.5979 60.0132 10.4722C59.2564 10.3145 58.0895 10.2514 56.4812 10.2514H51.467C48.881 10.2514 47.0519 10.6614 46.0743 11.4813C45.0651 12.3324 44.5605 13.7835 44.5605 15.8649V19.8384C44.5605 20.8791 44.7182 21.7302 44.9705 22.4239C45.2543 23.0866 45.6643 23.6543 46.2635 24.1273C46.7681 24.5053 47.3988 24.7896 48.093 24.9468C48.8179 25.1365 49.9537 25.1991 51.4674 25.1991H56.4816C58.0269 25.1991 59.1937 25.1361 59.9821 24.9784C60.7706 24.8211 61.4013 24.5684 61.9059 24.2215C62.4104 23.8431 62.7573 23.37 63.0096 22.7708C63.2304 22.1406 63.3565 21.3833 63.3565 20.4372C63.3565 20.2164 63.3565 19.9011 63.325 19.4911L63.3245 19.3654ZM83.0981 18.0089C83.4766 17.3786 83.6653 16.4956 83.6653 15.2341C83.6653 13.4051 83.2243 12.1436 82.4039 11.4498C81.5524 10.756 79.9761 10.4091 77.6419 10.4091H65.9105V25.0419H70.3886V21.2891H77.0427C77.8312 21.2891 78.3673 21.3837 78.6511 21.6044C78.9349 21.8252 79.0611 22.2036 79.0611 22.8028V25.0419H83.5392V22.0144C83.5392 21.2891 83.35 20.6899 82.94 20.2169C82.5616 19.7438 81.9939 19.4285 81.2055 19.2397C82.0885 19.0496 82.7193 18.64 83.0981 18.0089ZM78.7457 17.1894C78.4934 17.4728 78.0834 17.5994 77.4843 17.5994H70.3886V14.0677H77.4843C78.0519 14.0677 78.4619 14.1939 78.7142 14.4777C78.9665 14.73 79.0926 15.14 79.0926 15.7076C79.0926 16.4325 78.9665 16.9371 78.7457 17.1894ZM163.514 17.5678C164.24 17.2844 164.776 16.9375 165.154 16.433C165.501 15.9284 165.659 15.2977 165.659 14.5093C165.659 13.1217 165.248 12.1125 164.461 11.4502C163.641 10.7565 162.443 10.4096 160.802 10.4096H147.683V25.0423H161.496C163.136 25.0423 164.303 24.6954 165.06 24.0962C165.785 23.4655 166.164 22.4564 166.164 21.0688C166.164 19.9965 165.943 19.2081 165.533 18.6405C165.092 18.0724 164.429 17.7255 163.514 17.5678ZM152.13 13.7204H159.951C160.298 13.7204 160.551 13.815 160.771 14.0358C160.992 14.2565 161.087 14.5404 161.087 14.9188C161.087 15.2972 160.992 15.6126 160.803 15.8022C160.613 16.023 160.33 16.1176 159.952 16.1176H152.131V13.7204H152.13ZM161.245 21.3517C161.055 21.5729 160.74 21.6986 160.361 21.6986H152.13V19.0816H160.361C160.708 19.0816 161.023 19.1762 161.245 19.4285C161.465 19.6492 161.56 19.9646 161.56 20.3745C161.559 20.7841 161.465 21.131 161.245 21.3517ZM183.224 21.4779H173.512V10.4091H169.065V25.0419H183.224V21.4779ZM229.11 19.2392H239.926V16.2118H229.11V14.0042H240.59V10.4091H224.663V25.0419H240.746V21.4779H229.11V19.2392ZM205.111 24.1584C206.12 24.8522 207.949 25.1991 210.598 25.1991H215.581C217.852 25.1991 219.459 24.8522 220.374 24.1273C221.289 23.402 221.762 22.1717 221.762 20.4687V10.4091H217.315V19.0816C217.315 20.0276 217.094 20.6899 216.685 21.0368C216.243 21.3837 215.423 21.5733 214.162 21.5733H211.638C210.125 21.5733 209.179 21.3837 208.706 21.0688C208.264 20.7219 208.043 20.0596 208.043 19.082V10.4091H203.597V20.4687C203.597 22.2352 204.101 23.4966 205.111 24.1584ZM189.406 19.2392H200.223V16.2118H189.406V14.0042H200.885V10.4091H184.959V25.0419H201.074V21.4779H189.406V19.2392ZM213.026 26.9336L214.509 25.7668H213.468L212.458 26.9336H213.026ZM199.718 31.9798C199.75 31.8222 199.75 31.6329 199.75 31.4433V29.7088C199.75 29.2358 199.686 28.8258 199.592 28.5109C199.498 28.227 199.34 27.9743 199.119 27.7855C198.898 27.6278 198.646 27.5332 198.299 27.4386C197.984 27.3751 197.479 27.344 196.817 27.344H194.673C194.01 27.344 193.507 27.3751 193.159 27.4386C192.843 27.5332 192.56 27.6278 192.371 27.7855C192.15 27.9747 191.992 28.227 191.898 28.5424C191.772 28.8582 191.74 29.2677 191.74 29.8043V31.5383C191.74 32.0425 191.772 32.4213 191.898 32.7052C191.992 33.0205 192.15 33.2413 192.371 33.4301C192.614 33.6072 192.894 33.7259 193.19 33.777C193.507 33.8405 194.01 33.8716 194.673 33.8716H196.817C197.637 33.8716 198.205 33.8085 198.552 33.7143C198.93 33.5882 199.182 33.399 199.371 33.1151L199.971 33.5251L200.349 32.9264L199.624 32.4844C199.655 32.3267 199.686 32.1686 199.718 31.9798ZM198.898 31.3171C198.898 31.4433 198.898 31.6329 198.867 31.9163V32.0114L196.534 30.4341L196.187 31.0648L198.678 32.6732C198.552 32.8304 198.395 32.9566 198.173 33.0201C197.922 33.1147 197.606 33.1462 197.196 33.1462H194.453C193.949 33.1462 193.57 33.1147 193.349 33.0516C193.128 32.9566 192.939 32.862 192.813 32.6732C192.744 32.5394 192.68 32.4024 192.623 32.2628C192.592 32.1055 192.592 31.8528 192.592 31.5379V29.6462C192.592 29.3308 192.592 29.0785 192.623 28.9208C192.687 28.7636 192.749 28.6374 192.813 28.5109C192.939 28.3532 193.128 28.227 193.349 28.164C193.57 28.1004 193.885 28.0694 194.295 28.0694H197.196C197.606 28.0694 197.922 28.1004 198.142 28.164C198.363 28.227 198.521 28.3532 198.646 28.5109C198.742 28.637 198.805 28.7942 198.836 28.9524C198.868 29.1105 198.899 29.3623 198.899 29.7723V31.3171H198.898ZM223.402 30.3715C223.78 30.308 224.064 30.1507 224.222 29.9611C224.348 29.7719 224.443 29.4569 224.443 29.015C224.443 28.637 224.411 28.3527 224.316 28.164C224.225 27.972 224.083 27.8085 223.906 27.6909C223.704 27.57 223.478 27.4947 223.244 27.4702C222.825 27.4255 222.404 27.4043 221.982 27.4067H217.441V33.777H221.825C222.991 33.777 223.749 33.6823 224.096 33.4616C224.474 33.2724 224.663 32.8624 224.663 32.2948V31.6325C224.663 31.2221 224.537 30.9072 224.348 30.7179C224.158 30.5287 223.843 30.4026 223.402 30.3715ZM218.23 28.1005H221.982C222.456 28.1005 222.771 28.1004 222.96 28.132C223.149 28.1635 223.275 28.1951 223.401 28.2897C223.496 28.3208 223.559 28.4158 223.591 28.5415C223.655 28.6677 223.655 28.8573 223.655 29.1096C223.655 29.4876 223.591 29.7719 223.402 29.898C223.212 30.0242 222.708 30.0872 221.857 30.0872H218.23V28.1005H218.23ZM223.591 32.8624C223.401 32.9886 222.991 33.0521 222.393 33.0521H218.23V30.8445H222.393C223.023 30.8445 223.433 30.9076 223.623 31.0653C223.812 31.1914 223.875 31.5068 223.875 32.0114C223.875 32.4529 223.78 32.7363 223.591 32.8624ZM225.893 33.777H232.169V33.0832H226.65V30.8445H231.916V30.1192H226.65V28.1005H232.169V27.4067H225.893V33.777ZM239.958 31.7902C239.958 32.2948 239.832 32.6417 239.611 32.8309C239.391 33.0205 238.981 33.1467 238.382 33.1467H235.637C235.339 33.1472 235.041 33.1047 234.754 33.0205C234.534 32.957 234.376 32.8309 234.282 32.6736C234.181 32.5454 234.116 32.3933 234.092 32.2321C234.061 32.0744 234.029 31.8217 234.029 31.4433V29.7403C234.029 29.3619 234.061 29.0781 234.092 28.9204C234.123 28.7631 234.187 28.605 234.282 28.4789C234.376 28.3212 234.534 28.1951 234.754 28.132C234.975 28.0689 235.259 28.0374 235.637 28.0374H238.382C238.949 28.0374 239.328 28.132 239.548 28.3208C239.769 28.5104 239.864 28.8884 239.864 29.3615V29.4565H240.59V29.3304C240.62 29.2988 240.62 29.2042 240.62 29.1407C240.62 28.4469 240.431 27.9739 240.053 27.722C239.706 27.4382 238.98 27.3116 237.972 27.3116H235.953C235.323 27.3116 234.849 27.3431 234.534 27.4378C234.25 27.5008 233.998 27.5954 233.809 27.7847C233.588 27.9423 233.43 28.1946 233.336 28.51C233.241 28.8253 233.21 29.2349 233.21 29.7714V31.5383C233.21 32.0114 233.241 32.4213 233.336 32.7052C233.43 33.0205 233.588 33.2413 233.809 33.4301C233.998 33.5877 234.219 33.7139 234.534 33.777C234.818 33.8405 235.323 33.8716 235.953 33.8716H237.972C238.634 33.8716 239.138 33.8405 239.453 33.777C239.769 33.7139 239.99 33.6197 240.179 33.4616C240.336 33.3039 240.494 33.1147 240.557 32.8939C240.652 32.6417 240.683 32.3263 240.683 31.9163V31.7591V31.6014H239.958V31.7902H239.958ZM209.999 33.777H216.274V33.0832H210.787V30.8445H216.054V30.1192H210.787V28.1005H216.274V27.4067H209.999V33.777ZM176.76 27.8171C176.571 27.6594 176.319 27.5648 176.003 27.5013C175.657 27.4382 175.214 27.4067 174.584 27.4067H169.79V33.777H174.584C175.214 33.777 175.657 33.777 176.003 33.7139C176.319 33.6504 176.571 33.5242 176.76 33.367C177.044 33.1773 177.233 32.9566 177.328 32.6417C177.454 32.3583 177.517 31.9479 177.517 31.4748V29.7403C177.517 29.2357 177.454 28.8573 177.328 28.542C177.233 28.2586 177.044 28.0063 176.76 27.8171ZM176.697 31.5383C176.697 32.106 176.571 32.5155 176.319 32.7363C176.098 32.957 175.688 33.0832 175.089 33.0832H170.579V28.1005H175.089C175.719 28.1005 176.129 28.2266 176.35 28.4473C176.571 28.6681 176.697 29.0781 176.697 29.6777V31.5383ZM185.369 31.3171V31.5383C185.369 31.8852 185.369 32.1371 185.338 32.2952C185.306 32.4213 185.243 32.579 185.149 32.6736C185.054 32.8309 184.897 32.957 184.676 33.0205C184.486 33.1151 184.203 33.1467 183.824 33.1467H181.207C180.828 33.1467 180.544 33.1151 180.355 33.0205C180.134 32.957 179.977 32.8309 179.851 32.6736C179.779 32.5561 179.726 32.4285 179.693 32.2952C179.662 32.1375 179.63 31.8852 179.63 31.5383V27.4067H178.841V31.5383C178.841 32.0425 178.873 32.4213 178.967 32.7052C179.062 33.0205 179.22 33.2413 179.409 33.4301C179.63 33.5877 179.851 33.7139 180.166 33.777C180.45 33.8405 180.923 33.8716 181.554 33.8716H183.478C184.108 33.8716 184.582 33.8405 184.897 33.777C185.181 33.7139 185.433 33.5877 185.591 33.4301C185.811 33.2408 185.969 32.9885 186.064 32.7052C186.158 32.3894 186.19 31.9798 186.19 31.5068V27.4071H185.37V31.3171H185.369ZM207.665 31.3171V31.5383C207.665 31.8852 207.665 32.1371 207.602 32.2952C207.57 32.4213 207.539 32.579 207.444 32.6736C207.318 32.8309 207.161 32.957 206.972 33.0205C206.75 33.1151 206.467 33.1467 206.12 33.1467H203.502C203.124 33.1467 202.84 33.1151 202.619 33.0205C202.43 32.957 202.272 32.8309 202.146 32.6736C202.075 32.5562 202.022 32.4286 201.989 32.2952C201.957 32.1375 201.925 31.8852 201.925 31.5383V27.4067H201.105V31.5383C201.105 32.0425 201.169 32.4213 201.263 32.7052C201.358 33.0205 201.515 33.2413 201.705 33.4301C201.894 33.5877 202.146 33.7139 202.462 33.777C202.746 33.8405 203.219 33.8716 203.818 33.8716H205.774C206.404 33.8716 206.877 33.8405 207.161 33.777C207.429 33.7266 207.679 33.607 207.887 33.4301C208.107 33.2408 208.233 32.9885 208.328 32.7052C208.422 32.3894 208.485 31.9798 208.485 31.5068V27.4071H207.665V31.3171ZM251.752 12.2382C251.721 12.522 251.595 12.7428 251.374 12.9009C251.185 13.0582 250.901 13.1532 250.586 13.1532C250.176 13.1532 249.861 13.0271 249.64 12.8063C249.419 12.5856 249.293 12.2702 249.293 11.8602C249.293 11.4818 249.419 11.1664 249.64 10.9457C249.861 10.6934 250.176 10.5988 250.586 10.5988C250.901 10.5988 251.154 10.6618 251.343 10.8195C251.564 10.9768 251.69 11.1664 251.721 11.4187H252.194C252.163 11.0403 252.005 10.7565 251.721 10.5042C251.406 10.2839 251.059 10.1573 250.586 10.1573C250.05 10.1573 249.608 10.3149 249.293 10.6307C248.977 10.9461 248.82 11.3561 248.82 11.8607C248.82 12.3968 248.977 12.8067 249.293 13.1221C249.608 13.4375 250.05 13.5951 250.586 13.5951C251.059 13.5951 251.437 13.469 251.721 13.2167C252.037 12.9644 252.194 12.6491 252.225 12.2391H251.752V12.2382ZM246.266 13.0897L245.004 10.2514H244.31V13.4997H244.783L244.752 10.5983L246.045 13.4997H246.518L247.81 10.5983V13.4997H248.252V10.2514H247.558L246.266 13.0897Z" fill="#36384F"/>
</g>
<defs>
<clipPath id="clip0_1_572">
<rect width="252.226" height="34" fill="white"/>
</clipPath>
</defs>
</svg>
