<svg width="84" height="85" viewBox="0 0 84 85" fill="none" xmlns="http://www.w3.org/2000/svg">
<path d="M72.0948 17.5097C70.8043 15.0018 67.7553 14.0745 65.3092 15.3343L62.4037 16.8289C60.1704 17.9773 59.1759 20.5687 59.9366 22.8814L56.1299 24.6547C53.2895 25.6607 50.6589 25.3287 47.9924 24.306C44.6036 23.0075 43.8142 24.1846 42.3798 24.3036C42.3749 24.3048 42.3712 24.306 42.3667 24.3073C40.7409 24.6951 37.9756 25.355 36.6858 25.6626L34.6541 24.3831C30.5922 21.844 26.9189 22.6553 25.8875 22.5772C26.1335 20.5327 25.1878 18.7401 23.6324 17.7378L20.8844 15.9667C18.5673 14.4725 15.4418 15.112 13.9183 17.4736L2.4782 35.2268C0.971009 37.5674 1.64172 40.6838 3.98429 42.1946L6.7307 43.9632C8.4206 45.0524 10.6583 45.0965 12.4766 43.7218C12.8199 44.2027 13.2036 44.6565 13.6656 45.041L15.4334 46.5125L15.2275 46.7334C13.6673 48.4109 13.7542 51.054 15.4227 52.624L16.6663 53.7938C17.3886 54.4733 18.3201 54.854 19.3028 54.9071C19.4804 55.7514 19.9029 56.5522 20.5776 57.1866L21.5406 58.0922C22.3544 58.8576 23.4175 59.2792 24.5331 59.2792C24.6 59.2792 24.6644 59.2618 24.731 59.2587C24.9431 60.0266 25.3477 60.7294 25.9441 61.2898L26.8628 62.1544C27.5562 62.8075 28.4345 63.1938 29.3697 63.3024C29.5255 63.855 29.8176 64.3605 30.2458 64.7638L32.9151 67.2731C33.5106 67.8334 34.2883 68.1419 35.107 68.1419C35.9824 68.1419 36.8298 67.7764 37.4334 67.1388C39.333 68.9037 39.5522 69.1024 40.2848 69.4412C40.9673 69.757 41.6924 69.9104 42.4094 69.9104C43.7842 69.9104 45.1328 69.3461 46.1156 68.2838C46.9951 67.3301 47.4174 66.1236 47.4272 64.917C48.6306 64.8093 49.802 64.2978 50.6831 63.3422C51.5592 62.3912 51.9812 61.1904 51.998 59.9916C53.195 59.8802 54.3591 59.3694 55.2358 58.4187C56.1156 57.4646 56.538 56.2588 56.545 55.0495C57.7398 54.9368 58.9018 54.4264 59.7771 53.4771C60.932 52.2243 61.3219 50.5387 60.9846 48.9869L67.237 43.9681L70.179 42.8822C71.6132 45.0656 74.4222 45.7618 76.6886 44.5972L79.5925 43.1018C82.0633 41.8311 83.0395 38.787 81.7696 36.3145L72.0948 17.5097ZM8.55179 41.1388L5.80538 39.3702C5.0206 38.8636 4.80052 37.8233 5.30334 37.0471L16.7434 19.2939C17.2423 18.5178 18.2791 18.2869 19.0649 18.7911L21.813 20.5621C22.5958 21.068 22.8162 22.1066 22.3133 22.8844L10.8733 40.6368C10.3893 41.3898 9.30813 41.6294 8.55179 41.1388ZM17.7262 50.1778C17.398 49.8694 17.3816 49.351 17.6868 49.0229C17.8772 48.8186 20.124 46.4085 19.9656 46.5783C20.6202 45.8835 21.6784 45.8934 22.3281 46.5053C22.9991 47.137 23.032 48.1976 22.3954 48.8744C22.2386 49.0426 19.9713 51.4757 20.128 51.3074C19.8106 51.6483 19.2874 51.6487 18.9681 51.3468L17.7262 50.1778ZM23.8408 55.6444L22.8777 54.7388C22.4899 54.3738 22.4659 53.7763 22.7988 53.3692C22.9574 53.1996 26.4622 49.4539 26.3034 49.6233C26.8985 48.9895 27.9316 48.8881 28.6659 49.5774C29.3303 50.2025 29.3615 51.2508 28.738 51.9145C28.9107 51.7304 26.2208 54.5898 25.2698 55.6009C24.9039 55.9939 24.2378 56.0168 23.8408 55.6444ZM28.2459 58.842C27.864 58.4847 27.7856 57.8706 28.1751 57.4164L30.5854 54.8544C31.24 54.1595 32.2975 54.1696 32.9462 54.7823C33.6267 55.42 33.6469 56.4818 33.0234 57.1407L30.6346 59.6656C30.254 60.0659 29.5731 60.0897 29.1646 59.7074L28.2459 58.842ZM35.1004 64.7163L32.6657 62.4259L33.6123 61.4202C34.2144 60.7771 35.2743 60.714 35.9748 61.3751C36.2964 61.677 36.4818 62.0863 36.4949 62.5277C36.508 62.969 36.3489 63.389 36.0454 63.7114L35.1004 64.7163ZM57.3062 51.1991C56.7197 51.8349 55.6912 51.9764 54.9019 51.2617L49.784 46.8777C49.0812 46.276 48.0216 46.3564 47.4149 47.0598C46.8112 47.7646 46.8932 48.8258 47.5987 49.4289L52.66 53.7659C52.6641 53.7696 52.6686 53.7718 52.6727 53.7754C53.3482 54.4025 53.3905 55.4627 52.765 56.1407C52.1448 56.8161 51.0957 56.8597 50.4431 56.275C50.4353 56.2678 50.43 56.2587 50.4222 56.2515L46.0565 52.0392C45.4725 51.4786 44.3877 51.3535 43.6825 52.0802L43.6809 52.0818C42.9937 52.7933 43.136 53.8878 43.7219 54.4558L43.7235 54.4572L43.7473 54.4805L48.1187 58.7074C48.1233 58.7118 48.129 58.7143 48.1335 58.7186C48.7922 59.347 48.8324 60.3921 48.2123 61.0642C47.5888 61.7434 46.5257 61.7877 45.8711 61.1872L42.6752 58.1012C42.0611 57.5061 40.7301 57.1281 39.9222 58.0069C39.2922 58.6886 39.3349 59.7517 40.0157 60.3809L43.5463 63.6383C44.2256 64.2659 44.2698 65.3274 43.6464 66.0041C43.1477 66.5439 42.3618 66.6997 41.6957 66.3913C41.4578 66.2814 41.3873 66.2256 39.6433 64.6071L39.4821 64.4576C39.7409 63.8203 39.875 63.1342 39.8533 62.4259C39.8123 61.0872 39.2528 59.8452 38.2504 58.901C37.7371 58.4184 37.1235 58.0801 36.4689 57.8659C37.2444 55.9267 36.7564 53.7522 35.2497 52.3353C34.4921 51.6217 33.5201 51.2119 32.5092 51.0809C32.5915 49.6442 32.0816 48.1786 30.9414 47.1058C29.6055 45.8491 27.6167 45.5297 25.9104 46.0718C25.6531 45.3302 25.2402 44.6325 24.6299 44.0583C22.7625 42.3019 19.6277 42.343 17.7557 44.0741L15.8148 42.4587C15.3042 42.0339 14.931 41.4812 14.723 40.867L24.3116 25.9881C26.9518 26.0573 29.0816 25.3377 32.0513 26.7976C28.9042 27.6775 26.9943 30.9214 27.7881 34.1202C28.594 37.3239 31.7833 39.282 35.0967 38.5297C35.1037 38.5283 35.11 38.5308 35.1168 38.5294L42.2158 36.9421C42.8343 36.7846 43.4889 36.929 43.9811 37.3244C62.1115 53.0907 55.8584 47.6529 57.2111 48.8292C57.8903 49.4568 57.9329 50.5191 57.3062 51.1991ZM65.3469 41.1766L59.2102 46.1028C43.7919 31.9179 58.037 44.9278 46.0876 34.7059C44.7735 33.651 43.0148 33.2696 41.4332 33.6748L34.3851 35.2498C34.3824 35.2504 34.3805 35.2524 34.3781 35.253C34.3764 35.2533 34.3752 35.2528 34.3736 35.2531C32.6821 35.637 31.3647 34.5624 31.048 33.3057C30.6871 31.8529 31.5681 30.373 32.9938 30.0105C35.0752 29.5102 32.9562 30.0054 41.6157 27.9428C41.6608 27.9351 41.7047 27.9474 41.7498 27.9359C41.7547 27.9342 41.7597 27.9334 41.7646 27.9318L43.0869 27.5911C45.487 27.015 45.1922 26.8318 46.7931 27.4445C50.3077 28.7888 53.6542 29.098 57.3981 27.762L61.4012 25.9026L68.5954 39.8851C65.825 40.9356 65.7168 40.8798 65.3469 41.1766ZM78.0552 40.1143L75.1513 41.6089C74.3408 42.0272 73.3007 41.6852 72.8889 40.8837L63.6905 23.0056C63.6883 23.0004 63.6891 22.9947 63.6866 22.9894C63.6829 22.9816 63.6755 22.9772 63.6718 22.9695L63.2141 22.0797C62.7908 21.2553 63.1157 20.2406 63.9393 19.8165L66.8448 18.3219C67.6785 17.8937 68.6858 18.2265 69.1072 19.0478L78.7803 37.851C79.2037 38.6754 78.8788 39.691 78.0552 40.1143Z" fill="#36384F"/>
</svg>
