<svg width="260" height="51" viewBox="0 0 260 51" fill="none" xmlns="http://www.w3.org/2000/svg">
<path d="M139.44 30.9167L135.714 31.365C132.473 31.7707 129.634 32.9344 129.634 35.7127C129.634 37.6851 131.318 39.0322 133.494 39.0322C136.068 39.0322 138.196 37.3273 139.53 35.6226V30.9171L139.44 30.9167ZM139.485 42.8864V40.0631C138.155 41.6326 136.024 43.4698 132.25 43.4698C127.902 43.4698 124.307 40.6886 124.307 35.9379C124.307 30.153 129.676 28.0483 134.914 27.465L136.955 27.2391C138.952 27.0584 139.661 25.9402 139.661 24.5962C139.661 22.9365 138.11 21.7278 135.759 21.7278C133.051 21.7278 130.432 23.6971 129.455 25.2666L126.348 21.5473C128.256 19.0337 131.631 17.2869 136.024 17.2869C141.702 17.2869 144.988 20.2454 144.988 25.1765V42.8861L139.485 42.8864Z" fill="#36384F"/>
<path d="M155.324 42.8879H149.865V17.872H155.324V20.6953C157.276 18.9003 160.205 17.2858 163.401 17.2858C166.33 17.2858 170.321 18.9935 170.321 25.0881V42.8879H164.865V26.5223C164.865 24.0568 163.845 21.9491 161.315 21.9491C159.228 21.9491 156.568 23.7411 155.324 24.9108V42.8879Z" fill="#36384F"/>
<path d="M189.53 17.8707H194.989V42.8866H189.352V40.1987C187.843 41.6329 185.402 43.47 182.206 43.47C179.012 43.47 174.575 41.7651 174.575 35.4901V17.8707H180.033V33.6951C180.033 36.6116 181.277 38.6291 183.849 38.6291C185.98 38.6291 187.977 37.237 189.53 35.4901V17.8707Z" fill="#36384F"/>
<path d="M206.474 42.888H201.016V9.97947L206.474 4.51019V42.888Z" fill="#36384F"/>
<path d="M218.187 42.8874H212.506V17.8714H218.187V42.8874ZM215.348 6.61725C217.211 6.61725 218.806 8.18674 218.806 10.114C218.806 12.0414 217.211 13.656 215.348 13.656C213.437 13.656 211.839 12.0414 211.839 10.114C211.839 8.18674 213.437 6.61725 215.348 6.61725Z" fill="#36384F"/>
<path d="M235.491 22.4431H230.297V42.8889H224.842V22.4431H221.512V17.8699H224.842V12.7134C224.842 8.58815 227.458 4.86871 232.607 4.86871C235.003 4.86871 237 5.53951 238.196 6.16766L236.467 10.4734C235.711 10.0251 234.559 9.57732 233.449 9.57732C231.717 9.57732 230.297 10.8762 230.297 13.029V17.8699H236.777L235.491 22.4431Z" fill="#36384F"/>
<path d="M253.15 27.6435C253.15 24.5978 251.242 21.7262 247.915 21.7262C244.721 21.7262 242.233 24.7751 242.144 27.6435H253.15ZM241.968 31.859C242.013 35.894 244.897 38.7623 248.313 38.7623C250.888 38.7623 253.549 37.0155 254.703 34.9078L258.12 38.1339C256.123 41.0925 252.263 43.468 247.781 43.468C240.724 43.468 236.331 38.089 236.331 30.3767C236.331 22.9381 241.078 17.2884 247.956 17.2884C254.525 17.2884 259.141 21.6362 258.873 31.859H241.968Z" fill="#36384F"/>
<path d="M92.9862 42.888H87.0398V8.16333H93.4743L103.593 25.2475H103.683L113.754 8.16333H120.058V42.888H114.063V18.2961H113.977L103.546 35.7832L93.0755 18.2961H92.9862V42.888Z" fill="#36384F"/>
<path d="M35.4857 10.3359V49.3993L44.0779 40.7159V1.65558L35.4857 10.3359Z" fill="#36384F"/>
<path d="M18.3015 49.3981L26.8937 40.7176V1.65436L18.3015 10.3347V49.3981Z" fill="#36384F"/>
<path d="M1.11609 49.3981L9.70834 40.7176V1.65436L1.11609 10.3347V49.3981Z" fill="#36384F"/>
</svg>
