<svg width="16" height="17" viewBox="0 0 16 17" fill="none" xmlns="http://www.w3.org/2000/svg">
<path d="M7.52181 2.64476C7.67547 2.33347 7.75229 2.17782 7.85659 2.12809C7.94734 2.08483 8.05277 2.08483 8.14351 2.12809C8.24781 2.17782 8.32464 2.33347 8.4783 2.64476L9.93608 5.59807C9.98144 5.68997 10.0041 5.73592 10.0373 5.7716C10.0666 5.80319 10.1018 5.82878 10.1409 5.84696C10.1851 5.8675 10.2358 5.87491 10.3372 5.88973L13.598 6.36635C13.9414 6.41654 14.1131 6.44164 14.1926 6.52551C14.2617 6.59848 14.2942 6.69875 14.281 6.7984C14.2659 6.91294 14.1416 7.034 13.893 7.27614L11.5343 9.5735C11.4608 9.64511 11.424 9.68092 11.4003 9.72352C11.3793 9.76125 11.3658 9.80269 11.3607 9.84555C11.3548 9.89396 11.3635 9.94455 11.3808 10.0457L11.9373 13.2906C11.996 13.6329 12.0254 13.804 11.9702 13.9056C11.9222 13.9939 11.8369 14.0559 11.7381 14.0742C11.6245 14.0953 11.4708 14.0144 11.1634 13.8528L8.24829 12.3198C8.15746 12.272 8.11205 12.2481 8.0642 12.2387C8.02184 12.2304 7.97827 12.2304 7.9359 12.2387C7.88806 12.2481 7.84264 12.272 7.75181 12.3198L4.83666 13.8528C4.52932 14.0144 4.37565 14.0953 4.26202 14.0742C4.16316 14.0559 4.07786 13.9939 4.02987 13.9056C3.97471 13.804 4.00406 13.6329 4.06276 13.2906L4.6193 10.0457C4.63665 9.94455 4.64532 9.89396 4.63945 9.84555C4.63426 9.80269 4.62078 9.76125 4.59978 9.72352C4.57606 9.68092 4.53929 9.64511 4.46576 9.57349L2.10708 7.27614C1.85848 7.034 1.73418 6.91294 1.71906 6.7984C1.7059 6.69875 1.73841 6.59848 1.80754 6.52551C1.887 6.44164 2.05869 6.41654 2.40207 6.36635L5.66291 5.88973C5.76432 5.87491 5.81503 5.8675 5.85919 5.84696C5.89828 5.82878 5.93348 5.80319 5.96283 5.7716C5.99598 5.73592 6.01866 5.68997 6.06402 5.59807L7.52181 2.64476Z" fill="#36384F" stroke="#36384F" stroke-linecap="round" stroke-linejoin="round"/>
</svg>
